<svg xmlns="http://www.w3.org/2000/svg" xmlns:xlink="http://www.w3.org/1999/xlink" width="215" zoomAndPan="magnify" viewBox="0 0 161.25 37.5" height="50" preserveAspectRatio="xMidYMid meet" version="1.0"><defs><g/><clipPath id="d1eb86b00c"><path d="M 0.691406 18.503906 L 159.820312 18.503906 L 159.820312 37.007812 L 0.691406 37.007812 Z M 0.691406 18.503906 " clip-rule="nonzero"/></clipPath><clipPath id="2cdb7a5cd6"><path d="M 66.28125 3.699219 L 94.226562 3.699219 L 94.226562 31.648438 L 66.28125 31.648438 Z M 66.28125 3.699219 " clip-rule="nonzero"/></clipPath><clipPath id="ecccb78731"><path d="M 80.253906 31.648438 C 76.523438 31.648438 73.011719 30.195312 70.375 27.554688 C 67.734375 24.917969 66.28125 21.40625 66.28125 17.675781 C 66.28125 13.941406 67.734375 10.429688 70.375 7.792969 C 73.011719 5.152344 76.523438 3.699219 80.253906 3.699219 C 83.984375 3.699219 87.5 5.152344 90.132812 7.792969 C 92.777344 10.4375 94.226562 13.941406 94.226562 17.675781 C 94.226562 21.40625 92.777344 24.917969 90.132812 27.554688 C 87.5 30.195312 83.984375 31.648438 80.253906 31.648438 Z M 80.253906 4.539062 C 76.746094 4.539062 73.445312 5.90625 70.96875 8.386719 C 68.488281 10.867188 67.121094 14.167969 67.121094 17.675781 C 67.121094 21.179688 68.488281 24.480469 70.96875 26.960938 C 73.445312 29.441406 76.746094 30.808594 80.253906 30.808594 C 83.761719 30.808594 87.0625 29.441406 89.542969 26.960938 C 92.023438 24.480469 93.390625 21.179688 93.390625 17.675781 C 93.390625 14.167969 92.023438 10.867188 89.542969 8.386719 C 87.0625 5.90625 83.761719 4.539062 80.253906 4.539062 Z M 80.253906 4.539062 " clip-rule="nonzero"/></clipPath><clipPath id="6244756d35"><path d="M 67.136719 4.554688 L 93.375 4.554688 L 93.375 30.792969 L 67.136719 30.792969 Z M 67.136719 4.554688 " clip-rule="nonzero"/></clipPath><clipPath id="8a20299d05"><path d="M 80.253906 4.554688 C 73.007812 4.554688 67.136719 10.429688 67.136719 17.675781 C 67.136719 24.917969 73.007812 30.792969 80.253906 30.792969 C 87.5 30.792969 93.375 24.917969 93.375 17.675781 C 93.375 10.429688 87.5 4.554688 80.253906 4.554688 Z M 80.253906 4.554688 " clip-rule="nonzero"/></clipPath><clipPath id="f67ada4727"><path d="M 77 6.046875 L 83 6.046875 L 83 24 L 77 24 Z M 77 6.046875 " clip-rule="nonzero"/></clipPath><clipPath id="44915428f1"><path d="M 68.015625 11 L 92.441406 11 L 92.441406 28.992188 L 68.015625 28.992188 Z M 68.015625 11 " clip-rule="nonzero"/></clipPath><clipPath id="9aba9efbbd"><path d="M 72 23 L 79 23 L 79 28.992188 L 72 28.992188 Z M 72 23 " clip-rule="nonzero"/></clipPath><clipPath id="bf42a427b1"><path d="M 81 23 L 89 23 L 89 28.992188 L 81 28.992188 Z M 81 23 " clip-rule="nonzero"/></clipPath></defs><g clip-path="url(#d1eb86b00c)"><path fill="#258200" d="M 0.691406 18.503906 L 159.847656 18.503906 L 159.847656 37.007812 L 0.691406 37.007812 Z M 0.691406 18.503906 " fill-opacity="1" fill-rule="nonzero"/></g><g clip-path="url(#2cdb7a5cd6)"><g clip-path="url(#ecccb78731)"><path fill="#231f20" d="M 66.28125 3.699219 L 94.226562 3.699219 L 94.226562 31.648438 L 66.28125 31.648438 Z M 66.28125 3.699219 " fill-opacity="1" fill-rule="nonzero"/></g></g><g clip-path="url(#6244756d35)"><g clip-path="url(#8a20299d05)"><path fill="#ffffff" d="M 67.136719 4.554688 L 93.375 4.554688 L 93.375 30.792969 L 67.136719 30.792969 Z M 67.136719 4.554688 " fill-opacity="1" fill-rule="nonzero"/></g></g><g clip-path="url(#f67ada4727)"><path fill="#258200" d="M 82.882812 16.496094 C 82.882812 16.875 82.871094 17.246094 82.847656 17.613281 C 82.765625 19.050781 82.542969 20.386719 82.1875 21.507812 C 81.929688 22.324219 81.605469 23.027344 81.21875 23.574219 L 80.65625 23.175781 L 80.640625 23.164062 C 81.4375 22.039062 81.949219 20.421875 82.109375 18.566406 C 82.144531 18.171875 82.164062 17.765625 82.167969 17.34375 C 82.183594 14.789062 81.585938 11.910156 80.253906 9.277344 C 78.917969 11.910156 78.320312 14.789062 78.335938 17.34375 C 78.339844 17.761719 78.355469 18.164062 78.394531 18.5625 C 78.554688 20.417969 79.0625 22.035156 79.863281 23.164062 L 79.847656 23.175781 L 79.285156 23.574219 C 78.894531 23.027344 78.574219 22.324219 78.316406 21.507812 C 77.960938 20.386719 77.738281 19.050781 77.65625 17.613281 C 77.632812 17.246094 77.621094 16.875 77.621094 16.496094 C 77.59375 13.148438 78.320312 9.421875 79.945312 6.582031 L 80.253906 6.046875 L 80.558594 6.582031 C 82.183594 9.421875 82.90625 13.148438 82.882812 16.496094 " fill-opacity="1" fill-rule="nonzero"/></g><g clip-path="url(#44915428f1)"><path fill="#258200" d="M 84.09375 22.808594 L 84.007812 22.808594 C 84.777344 22.132812 85.546875 21.265625 86.265625 20.25 C 87.792969 19.851562 89.339844 19.832031 90.445312 20.292969 C 89.371094 21.429688 88.144531 22.808594 84.09375 22.808594 Z M 80.820312 27.628906 C 80.796875 27.917969 80.695312 28.582031 80.253906 28.582031 C 79.808594 28.582031 79.707031 27.917969 79.683594 27.628906 C 79.636719 27.015625 79.769531 26.363281 80.089844 25.632812 C 80.128906 25.542969 80.171875 25.453125 80.214844 25.367188 C 80.230469 25.339844 80.238281 25.316406 80.253906 25.289062 C 80.265625 25.316406 80.273438 25.339844 80.289062 25.367188 C 80.332031 25.453125 80.375 25.542969 80.414062 25.632812 C 80.730469 26.363281 80.867188 27.015625 80.820312 27.628906 Z M 76.496094 22.808594 L 76.40625 22.808594 C 72.359375 22.808594 71.1875 21.429688 70.113281 20.292969 C 71.273438 19.828125 72.710938 19.851562 74.234375 20.25 C 74.957031 21.265625 75.722656 22.132812 76.496094 22.808594 Z M 91.882812 19.53125 C 90.148438 19.140625 88.445312 19.09375 86.839844 19.398438 C 88.105469 17.402344 89.167969 14.972656 89.933594 12.304688 L 90.132812 11.613281 L 89.464844 11.878906 C 86.976562 12.859375 84.648438 14.539062 82.882812 16.496094 C 82.632812 16.773438 82.394531 17.058594 82.167969 17.34375 C 82.164062 17.765625 82.144531 18.171875 82.109375 18.566406 C 82.332031 18.242188 82.582031 17.921875 82.847656 17.613281 C 84.207031 16.03125 86.070312 14.691406 88.328125 13.667969 C 87.515625 16.269531 87.125 17.765625 85.832031 19.636719 C 84.160156 20.121094 82.941406 20.902344 82.1875 21.507812 C 81.71875 21.882812 81.433594 22.1875 81.324219 22.308594 C 81.230469 22.414062 81.140625 22.523438 81.050781 22.636719 C 80.917969 22.808594 80.785156 22.988281 80.65625 23.175781 C 80.523438 23.371094 80.386719 23.574219 80.261719 23.789062 L 80.253906 23.773438 L 80.242188 23.789062 C 80.113281 23.574219 79.980469 23.371094 79.847656 23.175781 C 79.71875 22.988281 79.585938 22.808594 79.453125 22.636719 C 79.363281 22.523438 79.273438 22.414062 79.179688 22.308594 C 79.074219 22.1875 78.78125 21.882812 78.316406 21.507812 C 77.5625 20.902344 76.34375 20.121094 74.671875 19.636719 C 73.378906 17.765625 72.988281 16.269531 72.171875 13.671875 C 74.433594 14.691406 76.292969 16.03125 77.65625 17.613281 C 77.921875 17.917969 78.167969 18.238281 78.394531 18.5625 C 78.355469 18.164062 78.339844 17.761719 78.335938 17.34375 C 78.109375 17.058594 77.867188 16.773438 77.621094 16.496094 C 75.855469 14.539062 73.527344 12.859375 71.039062 11.878906 L 70.371094 11.613281 L 70.566406 12.304688 C 71.335938 14.972656 72.398438 17.402344 73.660156 19.398438 C 72.058594 19.09375 70.355469 19.140625 68.617188 19.53125 L 68.035156 19.664062 L 68.429688 20.113281 C 69.488281 21.300781 71.453125 23.515625 76.40625 23.515625 C 76.757812 23.515625 77.128906 23.503906 77.5 23.484375 L 78.511719 23.417969 L 77.679688 22.839844 C 76.925781 22.308594 76.15625 21.558594 75.414062 20.640625 C 77.351562 21.410156 78.429688 22.53125 78.652344 22.777344 C 78.738281 22.875 78.816406 22.972656 78.894531 23.074219 C 79.230469 23.5 79.546875 23.988281 79.847656 24.519531 C 79.753906 24.695312 79.660156 24.875 79.578125 25.0625 C 79.53125 25.15625 79.484375 25.253906 79.441406 25.347656 C 79.074219 26.1875 78.921875 26.953125 78.976562 27.683594 C 79.054688 28.691406 79.53125 29.292969 80.253906 29.292969 C 80.96875 29.292969 81.449219 28.691406 81.527344 27.683594 C 81.582031 26.953125 81.429688 26.191406 81.0625 25.347656 C 81.019531 25.253906 80.972656 25.15625 80.925781 25.058594 C 80.839844 24.875 80.75 24.695312 80.652344 24.519531 C 80.957031 23.984375 81.273438 23.5 81.605469 23.074219 C 81.6875 22.972656 81.765625 22.875 81.851562 22.777344 C 82.074219 22.53125 83.152344 21.410156 85.085938 20.640625 C 84.347656 21.558594 83.578125 22.308594 82.824219 22.839844 L 81.988281 23.417969 L 83.003906 23.484375 C 83.375 23.503906 83.742188 23.515625 84.09375 23.515625 C 84.09375 23.515625 84.09375 23.515625 84.097656 23.515625 C 89.050781 23.515625 91.015625 21.300781 92.074219 20.113281 L 92.46875 19.664062 L 91.882812 19.53125 " fill-opacity="1" fill-rule="nonzero"/></g><path fill="#258200" d="M 81.378906 20.15625 C 81.378906 20.78125 80.875 21.285156 80.25 21.285156 C 79.628906 21.285156 79.121094 20.78125 79.121094 20.15625 C 79.121094 19.53125 79.628906 19.027344 80.25 19.027344 C 80.875 19.027344 81.378906 19.53125 81.378906 20.15625 " fill-opacity="1" fill-rule="nonzero"/><g clip-path="url(#9aba9efbbd)"><path fill="#258200" d="M 77.785156 24.652344 C 77.183594 24.703125 76.191406 24.871094 75.308594 25.421875 C 74.421875 25.976562 73.835938 26.785156 73.527344 27.308594 C 74.128906 27.261719 75.121094 27.09375 76.003906 26.539062 C 76.890625 25.988281 77.476562 25.175781 77.785156 24.652344 Z M 73.082031 28.039062 C 72.972656 28.039062 72.914062 28.035156 72.914062 28.035156 L 72.414062 28.003906 L 72.605469 27.542969 C 72.636719 27.472656 73.351562 25.808594 74.933594 24.820312 C 76.230469 24.011719 77.671875 23.925781 78.230469 23.925781 C 78.339844 23.925781 78.398438 23.929688 78.398438 23.929688 L 78.898438 23.957031 L 78.707031 24.417969 C 78.675781 24.488281 77.960938 26.15625 76.378906 27.140625 C 75.082031 27.949219 73.640625 28.039062 73.082031 28.039062 " fill-opacity="1" fill-rule="nonzero"/></g><g clip-path="url(#bf42a427b1)"><path fill="#258200" d="M 82.644531 24.652344 C 82.957031 25.175781 83.542969 25.988281 84.425781 26.539062 C 85.308594 27.089844 86.300781 27.261719 86.902344 27.308594 C 86.589844 26.785156 86.003906 25.972656 85.121094 25.421875 C 84.238281 24.871094 83.246094 24.703125 82.644531 24.652344 Z M 87.347656 28.039062 C 86.789062 28.039062 85.347656 27.949219 84.050781 27.140625 C 82.46875 26.15625 81.753906 24.488281 81.722656 24.417969 L 81.527344 23.957031 L 82.03125 23.929688 C 82.03125 23.929688 82.089844 23.925781 82.199219 23.925781 C 82.757812 23.925781 84.199219 24.011719 85.496094 24.820312 C 87.078125 25.808594 87.792969 27.472656 87.824219 27.542969 L 88.015625 28.003906 L 87.515625 28.035156 C 87.515625 28.035156 87.457031 28.039062 87.347656 28.039062 " fill-opacity="1" fill-rule="nonzero"/></g><g fill="#ffffff" fill-opacity="1"><g transform="translate(63.135435, 35.511947)"><g><path d="M 1.921875 0.078125 C 1.453125 0.078125 1.085938 -0.0390625 0.828125 -0.28125 C 0.566406 -0.519531 0.4375 -0.851562 0.4375 -1.28125 L 0.4375 -3.296875 L 0.921875 -3.296875 L 0.921875 -1.28125 C 0.921875 -1 1.003906 -0.78125 1.171875 -0.625 C 1.347656 -0.476562 1.597656 -0.40625 1.921875 -0.40625 C 2.242188 -0.40625 2.488281 -0.476562 2.65625 -0.625 C 2.832031 -0.78125 2.921875 -1 2.921875 -1.28125 L 2.921875 -3.296875 L 3.40625 -3.296875 L 3.40625 -1.28125 C 3.40625 -0.851562 3.273438 -0.519531 3.015625 -0.28125 C 2.753906 -0.0390625 2.390625 0.078125 1.921875 0.078125 Z M 1.921875 0.078125 "/></g></g></g><g fill="#ffffff" fill-opacity="1"><g transform="translate(66.988269, 35.511947)"><g><path d="M 1.78125 -2.8125 L 1.78125 0 L 1.3125 0 L 1.3125 -2.8125 L 0.125 -2.8125 L 0.125 -3.296875 L 2.9375 -3.296875 L 2.9375 -2.8125 Z M 1.78125 -2.8125 "/></g></g></g><g fill="#ffffff" fill-opacity="1"><g transform="translate(70.066108, 35.511947)"><g><path d="M 1.328125 -3.359375 L 1.859375 -3.359375 L 3.453125 0 L 2.921875 0 L 2.703125 -0.484375 L 1.6875 -0.484375 C 1.488281 -0.484375 1.316406 -0.460938 1.171875 -0.421875 C 1.035156 -0.390625 0.925781 -0.347656 0.84375 -0.296875 C 0.769531 -0.242188 0.71875 -0.195312 0.6875 -0.15625 L 0.609375 0 L 0.09375 0 L 1.515625 -2.953125 Z M 2.484375 -0.96875 L 1.765625 -2.359375 L 1.03125 -0.78125 C 1.09375 -0.832031 1.191406 -0.875 1.328125 -0.90625 C 1.460938 -0.945312 1.644531 -0.96875 1.875 -0.96875 Z M 2.484375 -0.96875 "/></g></g></g><g fill="#ffffff" fill-opacity="1"><g transform="translate(73.657659, 35.511947)"><g><path d="M 0.96875 0 L 0.484375 0 L 0.484375 -3.296875 L 0.96875 -3.296875 L 0.96875 -1.953125 C 1.03125 -1.984375 1.097656 -2.003906 1.171875 -2.015625 C 1.242188 -2.023438 1.316406 -2.03125 1.390625 -2.03125 C 1.429688 -2.03125 1.492188 -2.023438 1.578125 -2.015625 C 1.671875 -2.003906 1.769531 -1.992188 1.875 -1.984375 C 1.976562 -1.972656 2.082031 -1.960938 2.1875 -1.953125 C 2.289062 -1.941406 2.378906 -1.9375 2.453125 -1.9375 C 2.523438 -1.9375 2.597656 -1.941406 2.671875 -1.953125 C 2.753906 -1.972656 2.832031 -1.992188 2.90625 -2.015625 L 2.90625 -3.296875 L 3.390625 -3.296875 L 3.390625 0 L 2.90625 0 L 2.90625 -1.53125 C 2.832031 -1.5 2.753906 -1.476562 2.671875 -1.46875 C 2.597656 -1.457031 2.523438 -1.453125 2.453125 -1.453125 C 2.378906 -1.453125 2.289062 -1.457031 2.1875 -1.46875 C 2.082031 -1.476562 1.976562 -1.488281 1.875 -1.5 C 1.769531 -1.507812 1.671875 -1.519531 1.578125 -1.53125 C 1.492188 -1.539062 1.429688 -1.546875 1.390625 -1.546875 C 1.316406 -1.546875 1.242188 -1.539062 1.171875 -1.53125 C 1.097656 -1.519531 1.03125 -1.492188 0.96875 -1.453125 Z M 0.96875 0 "/></g></g></g><g fill="#ffffff" fill-opacity="1"><g transform="translate(77.537062, 35.511947)"><g/></g></g><g fill="#ffffff" fill-opacity="1"><g transform="translate(78.737199, 35.511947)"><g><path d="M 3 -2.515625 C 2.882812 -2.640625 2.742188 -2.734375 2.578125 -2.796875 C 2.410156 -2.867188 2.226562 -2.90625 2.03125 -2.90625 C 1.789062 -2.90625 1.570312 -2.847656 1.375 -2.734375 C 1.175781 -2.628906 1.019531 -2.484375 0.90625 -2.296875 C 0.789062 -2.109375 0.734375 -1.890625 0.734375 -1.640625 C 0.734375 -1.460938 0.769531 -1.296875 0.84375 -1.140625 C 0.914062 -0.992188 1.007812 -0.863281 1.125 -0.75 C 1.25 -0.644531 1.390625 -0.5625 1.546875 -0.5 C 1.703125 -0.4375 1.867188 -0.40625 2.046875 -0.40625 C 2.253906 -0.40625 2.453125 -0.453125 2.640625 -0.546875 C 2.828125 -0.640625 2.976562 -0.765625 3.09375 -0.921875 L 3.390625 -0.515625 C 3.222656 -0.335938 3.019531 -0.191406 2.78125 -0.078125 C 2.550781 0.0234375 2.300781 0.078125 2.03125 0.078125 C 1.78125 0.078125 1.546875 0.0351562 1.328125 -0.046875 C 1.117188 -0.140625 0.929688 -0.269531 0.765625 -0.4375 C 0.609375 -0.601562 0.484375 -0.789062 0.390625 -1 C 0.304688 -1.21875 0.265625 -1.453125 0.265625 -1.703125 C 0.265625 -1.941406 0.3125 -2.164062 0.40625 -2.375 C 0.5 -2.582031 0.628906 -2.757812 0.796875 -2.90625 C 0.960938 -3.0625 1.148438 -3.179688 1.359375 -3.265625 C 1.578125 -3.347656 1.804688 -3.390625 2.046875 -3.390625 C 2.296875 -3.390625 2.523438 -3.34375 2.734375 -3.25 C 2.953125 -3.164062 3.144531 -3.039062 3.3125 -2.875 Z M 3 -2.515625 "/></g></g></g><g fill="#ffffff" fill-opacity="1"><g transform="translate(82.350893, 35.511947)"><g><path d="M 1.328125 -3.359375 L 1.859375 -3.359375 L 3.453125 0 L 2.921875 0 L 2.703125 -0.484375 L 1.6875 -0.484375 C 1.488281 -0.484375 1.316406 -0.460938 1.171875 -0.421875 C 1.035156 -0.390625 0.925781 -0.347656 0.84375 -0.296875 C 0.769531 -0.242188 0.71875 -0.195312 0.6875 -0.15625 L 0.609375 0 L 0.09375 0 L 1.515625 -2.953125 Z M 2.484375 -0.96875 L 1.765625 -2.359375 L 1.03125 -0.78125 C 1.09375 -0.832031 1.191406 -0.875 1.328125 -0.90625 C 1.460938 -0.945312 1.644531 -0.96875 1.875 -0.96875 Z M 2.484375 -0.96875 "/></g></g></g><g fill="#ffffff" fill-opacity="1"><g transform="translate(85.942443, 35.511947)"><g><path d="M 0.203125 -3.296875 L 0.828125 -3.296875 L 2.9375 -0.78125 L 2.9375 -3.296875 L 3.421875 -3.296875 L 3.421875 0 L 2.953125 0 L 1.0625 -2.265625 L 1.0625 0 L 0.578125 0 L 0.578125 -2.828125 Z M 0.203125 -3.296875 "/></g></g></g><g fill="#ffffff" fill-opacity="1"><g transform="translate(89.861707, 35.511947)"><g><path d="M 0.203125 -3.296875 L 0.828125 -3.296875 L 2.9375 -0.78125 L 2.9375 -3.296875 L 3.421875 -3.296875 L 3.421875 0 L 2.953125 0 L 1.0625 -2.265625 L 1.0625 0 L 0.578125 0 L 0.578125 -2.828125 Z M 0.203125 -3.296875 "/></g></g></g><g fill="#ffffff" fill-opacity="1"><g transform="translate(93.780971, 35.511947)"><g><path d="M 1.328125 -3.359375 L 1.859375 -3.359375 L 3.453125 0 L 2.921875 0 L 2.703125 -0.484375 L 1.6875 -0.484375 C 1.488281 -0.484375 1.316406 -0.460938 1.171875 -0.421875 C 1.035156 -0.390625 0.925781 -0.347656 0.84375 -0.296875 C 0.769531 -0.242188 0.71875 -0.195312 0.6875 -0.15625 L 0.609375 0 L 0.09375 0 L 1.515625 -2.953125 Z M 2.484375 -0.96875 L 1.765625 -2.359375 L 1.03125 -0.78125 C 1.09375 -0.832031 1.191406 -0.875 1.328125 -0.90625 C 1.460938 -0.945312 1.644531 -0.96875 1.875 -0.96875 Z M 2.484375 -0.96875 "/></g></g></g></svg>